<svg width="24" height="24" viewBox="0 0 24 24" fill="none" xmlns="http://www.w3.org/2000/svg">
  <mask id="moon-mask">
    <rect x="0" y="0" width="24" height="24" fill="white" />
    <circle cx="18" cy="6" r="8" fill="black" />
  </mask>
  <circle cx="12" cy="12" r="6" fill="currentColor" mask="url(#moon-mask)" class="moon-icon" />
  <path d="M12 18C15.3137 18 18 15.3137 18 12C18 8.68629 15.3137 6 12 6C8.68629 6 6 8.68629 6 12C6 15.3137 8.68629 18 12 18ZM12 16C14.2091 16 16 14.2091 16 12C16 9.79086 14.2091 8 12 8C9.79086 8 8 9.79086 8 12C8 14.2091 9.79086 16 12 16Z" fill="currentColor" class="sun-icon" />
  <path d="M12 4V2M12 22V20M4 12H2M22 12H20M19.071 4.92893L17.6569 6.34315M6.34315 17.6569L4.92893 19.071M19.071 19.071L17.6569 17.6569M6.34315 6.34315L4.92893 4.92893" stroke="currentColor" stroke-width="2" stroke-linecap="round" stroke-linejoin="round" class="sun-icon" />
</svg>